<?xml version="1.0" encoding="UTF-8" standalone="no"?>
<!-- Created with Inkscape (http://www.inkscape.org/) -->

<svg
   xmlns:dc="http://purl.org/dc/elements/1.1/"
   xmlns:cc="http://creativecommons.org/ns#"
   xmlns:rdf="http://www.w3.org/1999/02/22-rdf-syntax-ns#"
   xmlns:svg="http://www.w3.org/2000/svg"
   xmlns="http://www.w3.org/2000/svg"
   xmlns:sodipodi="http://sodipodi.sourceforge.net/DTD/sodipodi-0.dtd"
   xmlns:inkscape="http://www.inkscape.org/namespaces/inkscape"
   width="256"
   height="48"
   viewBox="0 0 256 48"
   id="svg2"
   version="1.1"
   inkscape:version="0.91 r13725"
   sodipodi:docname="woroni.svg">
  <defs
     id="defs4" />
  <sodipodi:namedview
     id="base"
     pagecolor="#ffffff"
     bordercolor="#666666"
     borderopacity="1.0"
     inkscape:pageopacity="0.0"
     inkscape:pageshadow="2"
     inkscape:zoom="3.959798"
     inkscape:cx="135.41959"
     inkscape:cy="49.639544"
     inkscape:document-units="px"
     inkscape:current-layer="layer1"
     showgrid="false"
     fit-margin-top="0"
     fit-margin-left="0"
     fit-margin-right="0"
     fit-margin-bottom="0"
     units="px"
     inkscape:window-width="1920"
     inkscape:window-height="1034"
     inkscape:window-x="0"
     inkscape:window-y="25"
     inkscape:window-maximized="1" />
  <metadata
     id="metadata7">
    <rdf:RDF>
      <cc:Work
         rdf:about="">
        <dc:format>image/svg+xml</dc:format>
        <dc:type
           rdf:resource="http://purl.org/dc/dcmitype/StillImage" />
        <dc:title></dc:title>
      </cc:Work>
    </rdf:RDF>
  </metadata>
  <g
     inkscape:label="Layer 1"
     inkscape:groupmode="layer"
     id="layer1"
     transform="translate(-91.140577,-318.80391)">
    <g
       style="font-style:normal;font-weight:normal;font-size:66.42826843px;line-height:125%;font-family:Sans;letter-spacing:0px;word-spacing:0px;fill:#000000;fill-opacity:1;stroke:none;stroke-width:1px;stroke-linecap:butt;stroke-linejoin:miter;stroke-opacity:1"
       id="text3336">
      <path
         d="m 155.33415,320.15187 q 0,0.59785 -2.25856,0.66428 -2.52428,0.0664 -3.38784,1.6607 -0.79714,1.59428 -2.52428,6.77569 -2.98927,9.10067 -5.31426,15.47778 -3.98569,10.89424 -7.24068,21.05777 -0.26571,0.86356 -0.66428,0.86356 -0.33214,0 -0.66428,-0.66428 -0.26572,-0.66428 -1.72714,-4.64998 -1.85999,-5.1814 -4.05212,-10.42924 -1.72714,-4.11855 -3.38785,-8.50281 -4.64997,11.22637 -9.23353,23.44917 -0.26571,0.79714 -0.66428,0.79714 -0.33214,0 -0.79714,-1.12928 -2.05927,-4.91569 -15.278499,-40.72053 -0.929996,-2.52427 -1.394994,-3.12212 -0.464998,-0.66429 -2.324989,-0.73072 -3.188557,-0.13285 -3.188557,-0.92999 0,-0.59786 1.062852,-0.59786 0.464998,0 0.79714,0.0664 3.520698,0.19929 7.572827,0.19929 0.79713,0 2.72355,-0.0664 1.99285,-0.13286 5.11498,-0.13286 l 0.73071,0 q 1.12928,0 1.12928,0.59786 0,0.73071 -2.05927,0.79714 -4.11856,0.13285 -4.11856,1.06285 0,1.85999 12.2228,34.60913 4.4507,-11.22638 6.64283,-16.54064 l -6.5764,-17.00564 q -0.53142,-1.39499 -1.26213,-1.79356 -0.66429,-0.39857 -2.52428,-0.465 -1.85999,-0.0664 -1.85999,-0.59785 0,-0.73072 1.39499,-0.73072 1.06286,0 2.59071,0.13286 1.52785,0.13286 5.31426,0.13286 l 5.04855,0 7.30711,0.13285 q 2.45784,0 5.91211,-0.26571 0.39857,-0.0664 0.93,-0.0664 1.59428,0 1.59428,0.66429 0,0.59785 -1.12928,0.59785 l -1.12929,0 q -2.98927,0 -4.51712,0.79714 -0.66428,0.33214 -2.45784,4.78283 -0.79714,1.86 -2.65713,6.31069 -0.39857,0.99642 -1.19571,2.98927 0.46499,1.32857 2.92284,7.37354 3.18856,7.70568 5.24783,13.21923 3.71999,-10.76138 8.76854,-25.44203 2.65713,-7.77211 2.65713,-8.63568 0,-1.26213 -2.32499,-1.26213 -3.25499,0 -3.25499,-0.73071 0,-0.66429 1.32857,-0.66429 1.12928,0 1.79356,0.0664 1.46142,0.13286 2.65713,0.13286 l 5.31426,-0.0664 q 1.99285,0 2.19214,0.19928 0.19928,0.13286 0.19928,0.33215 z m -23.9806,1.99284 q 0,-1.19571 -4.11856,-1.19571 l -0.79714,0 -1.12928,0.0664 q -2.39141,0.13286 -2.39141,0.86357 0,0.13286 3.91926,11.49209 1.52785,-3.32141 3.58713,-8.76853 0.26571,-0.73071 0.79714,-1.92642 0.13286,-0.53143 0.13286,-0.53143 z"
         style="font-style:normal;font-variant:normal;font-weight:normal;font-stretch:normal;font-family:'Bodoni SvtyTwo ITC TT';-inkscape-font-specification:'Bodoni SvtyTwo ITC TT'"
         id="path3344" />
      <path
         d="m 196.11799,343.00319 q 0,9.89781 -5.97854,16.73992 -5.91212,6.84212 -14.54779,6.84212 -9.1671,0 -15.41136,-6.90854 -6.24426,-6.97497 -6.24426,-17.1385 0,-10.36281 5.97855,-16.93921 6.04497,-6.64282 15.41136,-6.64282 8.83496,0 14.8135,6.90854 5.97854,6.90854 5.97854,17.13849 z m -7.43996,0.33214 q 0,-12.15637 -4.98212,-18.93206 -3.12213,-4.2514 -8.70211,-4.2514 -5.31426,0 -8.2371,3.25498 -5.38069,5.97854 -5.38069,19.46348 0,10.69495 3.71998,16.60707 3.78641,5.91212 10.5621,5.91212 6.31068,0 9.49924,-5.57998 3.5207,-6.17783 3.5207,-16.47421 z"
         style="font-style:normal;font-variant:normal;font-weight:normal;font-stretch:normal;font-family:'Bodoni SvtyTwo ITC TT';-inkscape-font-specification:'Bodoni SvtyTwo ITC TT'"
         id="path3346" />
      <path
         d="m 238.41307,363.79524 q 0,2.78999 -4.64998,2.78999 -5.1814,0 -8.10424,-4.31784 -1.26214,-1.85999 -1.66071,-3.58713 -0.33214,-1.72713 -1.06285,-8.76853 -0.39857,-4.25141 -2.72356,-5.97854 -2.32499,-1.79357 -7.57283,-1.92642 l 0,20.9249 q 0,1.32857 2.12571,1.66071 0.59785,0.0664 3.0557,0.13285 0.86357,0 0.86357,0.53143 0,0.59785 -1.12928,0.59785 l -0.79714,0 q -0.59786,-0.0664 -5.77926,-0.0664 -0.99643,0 -3.38784,0.0664 -2.32499,0 -3.0557,0 l -2.59071,0 q -1.46142,0 -1.46142,-0.59785 0,-0.465 1.92642,-0.53143 3.12213,-0.0664 3.38784,-0.79714 0.26572,-0.33214 0.26572,-2.5907 l 0,-36.6684 q 0,-2.65713 -0.59786,-3.18856 -0.53142,-0.53143 -3.38784,-0.59785 -1.66071,0 -1.66071,-0.59786 0,-0.66428 1.06286,-0.66428 0.19928,0 0.59785,0.0664 l 8.83496,0.19928 q 1.32857,0 3.71998,-0.0664 2.65713,-0.13285 3.71999,-0.13285 6.17782,0 9.76495,2.78998 3.65356,2.72356 3.65356,7.43997 0,4.64998 -3.71999,7.70568 -3.71998,2.98927 -10.09709,3.5207 -0.59786,0.0664 -0.66429,0.19928 0,0.26572 0.66429,0.26572 6.97496,1.19571 9.56567,4.91569 2.65713,3.65355 3.5207,13.28565 0.53142,5.44712 3.71998,5.44712 0.99642,0 0.99642,-0.39857 0,-0.0664 -0.0664,-0.13286 -0.33214,-0.73071 -0.33214,-1.19571 0,-1.39499 1.46142,-1.39499 1.59428,0 1.59428,1.66071 z m -13.75065,-33.28056 q 0,-9.49925 -8.2371,-9.49925 -2.19214,0 -2.98928,0.59786 -0.79714,0.59785 -0.79714,2.1257 l 0,16.87278 q 6.37712,0.0664 9.16711,-2.32499 2.85641,-2.39141 2.85641,-7.7721 z"
         style="font-style:normal;font-variant:normal;font-weight:normal;font-stretch:normal;font-family:'Bodoni SvtyTwo ITC TT';-inkscape-font-specification:'Bodoni SvtyTwo ITC TT'"
         id="path3348" />
      <path
         d="m 281.4887,343.00319 q 0,9.89781 -5.97855,16.73992 -5.91211,6.84212 -14.54779,6.84212 -9.1671,0 -15.41135,-6.90854 -6.24426,-6.97497 -6.24426,-17.1385 0,-10.36281 5.97854,-16.93921 6.04497,-6.64282 15.41136,-6.64282 8.83496,0 14.8135,6.90854 5.97855,6.90854 5.97855,17.13849 z m -7.43997,0.33214 q 0,-12.15637 -4.98212,-18.93206 -3.12213,-4.2514 -8.7021,-4.2514 -5.31426,0 -8.23711,3.25498 -5.38069,5.97854 -5.38069,19.46348 0,10.69495 3.71999,16.60707 3.78641,5.91212 10.56209,5.91212 6.31069,0 9.49924,-5.57998 3.5207,-6.17783 3.5207,-16.47421 z"
         style="font-style:normal;font-variant:normal;font-weight:normal;font-stretch:normal;font-family:'Bodoni SvtyTwo ITC TT';-inkscape-font-specification:'Bodoni SvtyTwo ITC TT'"
         id="path3350" />
      <path
         d="m 326.97234,320.28472 q 0,0.66428 -1.6607,0.59786 l -1.46143,-0.0664 -1.19571,0 q -1.06285,0 -1.26213,0.39857 -0.19929,0.33214 -0.19929,2.19213 l 0,38.26268 q 0,3.5207 -0.0664,4.11856 -0.0664,0.59785 -0.39857,0.59785 -0.39856,0 -0.92999,-0.73071 l -8.50282,-12.42209 q -7.37354,-10.8278 -17.93563,-27.0363 l 0.0664,37.06697 q 0.0664,0.86357 0.99642,1.12928 0.93,0.19929 4.45069,0.26572 0.86357,0 0.86357,0.53142 0,0.66428 -1.72713,0.66428 -0.59786,0 -3.78641,-0.19928 -1.06286,-0.0664 -2.05928,-0.0664 0.0664,0 -1.19571,0.13286 -1.19571,0.13285 -3.71998,0.13285 l -0.66429,0 q -1.52785,0 -1.52785,-0.59785 0,-0.59785 1.32857,-0.59785 3.91927,-0.0664 4.51712,-0.465 0.66428,-0.465 0.66428,-2.85642 l 0,-32.74913 q 0,-5.51355 -2.25856,-6.90854 -1.06285,-0.66429 -3.78641,-0.66429 -1.72713,0 -1.72713,-0.66428 0,-0.59785 0.99642,-0.59785 1.32857,0 3.38784,0.0664 2.05928,0.0664 2.19214,0.0664 0.19928,0 1.85999,-0.0664 2.19213,0 4.25141,-0.0664 l 22.91775,34.0777 0,-29.56058 q 0,-2.05928 -0.0664,-2.45785 -0.0664,-0.465 -0.53143,-0.66428 -0.46499,-0.26571 -3.18855,-0.26571 -2.39142,0 -2.39142,-0.59786 0,-0.66428 1.59428,-0.66428 l 2.32499,0 q 0.86357,0 1.85999,0 1.06285,0.0664 1.26214,0.0664 0.0664,0 1.19571,-0.0664 1.06285,0 1.99284,0 l 2.05928,0 q 1.46142,0 1.46142,0.66428 z"
         style="font-style:normal;font-variant:normal;font-weight:normal;font-stretch:normal;font-family:'Bodoni SvtyTwo ITC TT';-inkscape-font-specification:'Bodoni SvtyTwo ITC TT'"
         id="path3352" />
      <path
         d="m 347.05029,365.25666 q 0,0.53143 -0.79714,0.53143 l -0.66429,0 q -0.39856,-0.19929 -9.03424,-0.19929 -1.66071,0 -3.32141,0.13286 -0.86357,0.0664 -2.65713,0.0664 -0.86357,0 -0.86357,-0.59786 0,-0.53142 1.72713,-0.59785 2.65713,-0.0664 3.12213,-0.59786 0.465,-0.59785 0.465,-3.85284 l 0,-34.94127 q 0,-3.25498 -0.33214,-3.65355 -0.39857,-0.66428 -3.65356,-0.79714 -1.26213,-0.0664 -1.26213,-0.53143 0,-0.59785 0.79714,-0.59785 l 8.96781,0.13286 q 0.99643,0 3.85284,-0.0664 l 2.52428,-0.0664 q 1.06285,0 1.06285,0.59785 0,0.53143 -2.92285,0.66429 -1.6607,0.0664 -2.05927,0.59785 -0.33214,0.53143 -0.33214,2.78999 l 0,35.47269 q 0,3.78641 0.33214,4.11856 0.73071,0.73071 4.31784,0.86356 0.73071,0 0.73071,0.53143 z"
         style="font-style:normal;font-variant:normal;font-weight:normal;font-stretch:normal;font-family:'Bodoni SvtyTwo ITC TT';-inkscape-font-specification:'Bodoni SvtyTwo ITC TT'"
         id="path3354" />
    </g>
  </g>
</svg>
